<svg width="14" height="15" viewBox="0 0 14 15" fill="none" xmlns="http://www.w3.org/2000/svg">
<path d="M7.00016 0.833374C3.32016 0.833374 0.333496 3.82004 0.333496 7.50004C0.333496 11.18 3.32016 14.1667 7.00016 14.1667C10.6802 14.1667 13.6668 11.18 13.6668 7.50004C13.6668 3.82004 10.6802 0.833374 7.00016 0.833374ZM7.00016 8.16671C6.6335 8.16671 6.3335 7.86671 6.3335 7.50004V4.83337C6.3335 4.46671 6.6335 4.16671 7.00016 4.16671C7.36683 4.16671 7.66683 4.46671 7.66683 4.83337V7.50004C7.66683 7.86671 7.36683 8.16671 7.00016 8.16671ZM7.66683 10.8334H6.3335V9.50004H7.66683V10.8334Z" fill="#E24437"/>
</svg>
