<svg width="59" height="43" viewBox="0 0 59 43" fill="none" xmlns="http://www.w3.org/2000/svg">
<path fill-rule="evenodd" clip-rule="evenodd" d="M9.48561 31.5638C9.56126 31.9241 9.33048 32.2775 8.97015 32.3532C6.53265 32.8649 4.59715 33.4761 3.28751 34.1385C2.63167 34.4702 2.16634 34.7981 1.87318 35.1055C1.5828 35.41 1.49984 35.6511 1.49984 35.8334C1.49984 36.0087 1.57629 36.2374 1.83974 36.5254C2.10657 36.8171 2.53189 37.1305 3.13566 37.4498C4.34193 38.0877 6.13129 38.6825 8.39866 39.1897C12.9226 40.2017 19.2048 40.8334 26.1665 40.8334C33.1282 40.8334 39.4104 40.2017 43.9344 39.1897C46.2017 38.6825 47.9911 38.0877 49.1974 37.4498C49.8011 37.1305 50.2264 36.8171 50.4933 36.5254C50.7567 36.2374 50.8332 36.0087 50.8332 35.8334C50.8332 35.6511 50.7502 35.41 50.4598 35.1055C50.1667 34.7981 49.7013 34.4702 49.0455 34.1385C47.7359 33.4761 45.8004 32.8649 43.3629 32.3532C43.0025 32.2775 42.7717 31.9241 42.8474 31.5638C42.923 31.2034 43.2765 30.9726 43.6368 31.0483C46.1234 31.5703 48.1879 32.2106 49.6473 32.9486C50.3759 33.3172 50.9873 33.7267 51.4248 34.1854C51.865 34.647 52.1665 35.2007 52.1665 35.8334C52.1665 36.4404 51.8885 36.9756 51.477 37.4254C51.0689 37.8715 50.4989 38.2698 49.8207 38.6284C48.4631 39.3464 46.5425 39.9726 44.2254 40.4909C39.5805 41.5299 33.196 42.1667 26.1665 42.1667C19.137 42.1667 12.7525 41.5299 8.1076 40.4909C5.79054 39.9726 3.86992 39.3464 2.51232 38.6284C1.83415 38.2698 1.26407 37.8715 0.855964 37.4254C0.444489 36.9756 0.166504 36.4404 0.166504 35.8334C0.166504 35.2007 0.468027 34.647 0.908261 34.1854C1.34571 33.7267 1.95711 33.3172 2.68575 32.9486C4.14509 32.2106 6.20959 31.5703 8.6962 31.0483C9.05653 30.9726 9.40997 31.2034 9.48561 31.5638Z" fill="black"/>
<path fill-rule="evenodd" clip-rule="evenodd" d="M45.8393 26.6449C45.654 26.3413 45.5977 25.9764 45.6828 25.6311C45.877 24.8432 46.0103 24.0236 46.0871 23.1875C46.1231 22.7944 46.3315 22.4375 46.656 22.2129C46.9806 21.9883 47.388 21.919 47.7685 22.0237C48.106 22.1166 48.4626 22.1666 48.833 22.1666C51.0422 22.1666 52.833 20.3757 52.833 18.1666C52.833 15.9574 51.0422 14.1666 48.833 14.1666C48.4857 14.1666 48.1506 14.2105 47.8321 14.2925C47.4329 14.3953 47.0086 14.3076 46.6828 14.0551C46.357 13.8025 46.1664 13.4135 46.1664 13.0013V10.2772C46.1664 9.62595 46.6368 9.06999 47.2791 8.96224C47.7853 8.87731 48.3045 8.83325 48.833 8.83325C53.9877 8.83325 58.1664 13.0119 58.1664 18.1666C58.1664 23.3212 53.9877 27.4999 48.833 27.4999C48.0897 27.4999 47.365 27.4128 46.6693 27.2475C46.3233 27.1653 46.0245 26.9484 45.8393 26.6449ZM48.7362 23.4991C48.2794 23.4909 47.8367 23.4254 47.4148 23.3093C47.3737 23.7571 47.3173 24.2022 47.2448 24.6426C47.1873 24.9923 47.1195 25.3391 47.0412 25.6817C47.0206 25.7715 46.9994 25.861 46.9774 25.9503C47.4063 26.0521 47.8486 26.1195 48.3011 26.1492C48.477 26.1607 48.6543 26.1666 48.833 26.1666C53.2513 26.1666 56.833 22.5849 56.833 18.1666C56.833 13.7483 53.2513 10.1666 48.833 10.1666C48.3788 10.1666 47.9333 10.2045 47.4997 10.2772V13.0013C47.9259 12.8916 48.3726 12.8333 48.833 12.8333C51.7786 12.8333 54.1664 15.2211 54.1664 18.1666C54.1664 21.1121 51.7786 23.4999 48.833 23.4999C48.8007 23.4999 48.7684 23.4996 48.7362 23.4991Z" fill="black"/>
<path fill-rule="evenodd" clip-rule="evenodd" d="M5.49967 4.1665C5.86786 4.1665 6.16634 4.46498 6.16634 4.83317V21.5057C6.16634 26.159 7.77574 30.6637 11.808 32.8027C15.1049 34.5516 19.8548 36.1665 26.1663 36.1665C32.4779 36.1665 37.2278 34.5516 40.5246 32.8027C44.5569 30.6637 46.1663 26.159 46.1663 21.5057V4.83317C46.1663 4.46498 46.4648 4.1665 46.833 4.1665C47.2012 4.1665 47.4997 4.46498 47.4997 4.83317V21.5057C47.4997 26.3992 45.8033 31.5119 41.1495 33.9806C37.6784 35.8219 32.7155 37.4998 26.1663 37.4998C19.6172 37.4998 14.6542 35.8219 11.1832 33.9806C6.52935 31.5119 4.83301 26.3992 4.83301 21.5057V4.83317C4.83301 4.46498 5.13148 4.1665 5.49967 4.1665Z" fill="black"/>
<path fill-rule="evenodd" clip-rule="evenodd" d="M7.5 8.0061V21.7873C7.5 25.3676 8.68473 28.9395 11.7054 30.8613C14.7671 32.8093 19.5422 34.8333 26.1667 34.8333C32.7911 34.8333 37.5663 32.8093 40.6279 30.8613C43.6486 28.9395 44.8333 25.3676 44.8333 21.7873V8.0061C41.9441 8.88001 34.676 9.5 26.1667 9.5C17.6573 9.5 10.3892 8.88001 7.5 8.0061Z" fill="black"/>
<path d="M40.6276 30.8613C43.6483 28.9395 44.833 25.3676 44.833 21.7873V8.0061C43.2753 8.47727 40.4447 8.87462 36.833 9.1408V32.8218C38.3063 32.217 39.5693 31.5346 40.6276 30.8613Z" fill="black"/>
<path d="M11.7054 30.8613C8.68473 28.9395 7.5 25.3676 7.5 21.7873V8.0061C8.75713 8.38635 10.8433 8.71852 13.5 8.97247V31.8949C12.8472 31.5558 12.2493 31.2074 11.7054 30.8613Z" fill="black"/>
<path fill-rule="evenodd" clip-rule="evenodd" d="M40.463 7.47418C36.7781 7.90409 31.724 8.16658 26.1663 8.16658C20.6086 8.16658 15.5546 7.90409 11.8697 7.47418C10.0362 7.26028 8.49308 6.99955 7.38351 6.69349C6.83909 6.54332 6.3216 6.36184 5.91228 6.12847C5.70793 6.01196 5.46702 5.84725 5.26391 5.61391C5.05328 5.37194 4.83301 4.99364 4.83301 4.49992C4.83301 4.0062 5.05328 3.6279 5.26391 3.38592C5.46702 3.15259 5.70793 2.98787 5.91228 2.87137C6.3216 2.638 6.83909 2.45651 7.38351 2.30635C8.49308 2.00029 10.0362 1.73956 11.8697 1.52565C15.5546 1.09575 20.6086 0.833252 26.1663 0.833252C31.724 0.833252 36.7781 1.09575 40.463 1.52565C42.2965 1.73956 43.8396 2.00029 44.9492 2.30635C45.4936 2.45651 46.0111 2.638 46.4204 2.87137C46.6247 2.98787 46.8657 3.15259 47.0688 3.38592C47.2794 3.6279 47.4997 4.0062 47.4997 4.49992C47.4997 4.99364 47.2794 5.37194 47.0688 5.61391C46.8657 5.84725 46.6247 6.01196 46.4204 6.12847C46.0111 6.36184 45.4936 6.54332 44.9492 6.69349C43.8396 6.99955 42.2965 7.26028 40.463 7.47418ZM26.1663 6.83325C37.212 6.83325 46.1663 5.78858 46.1663 4.49992C46.1663 3.21125 37.212 2.16659 26.1663 2.16659C15.1206 2.16659 6.16634 3.21125 6.16634 4.49992C6.16634 5.78858 15.1206 6.83325 26.1663 6.83325Z" fill="black"/>
<path fill-rule="evenodd" clip-rule="evenodd" d="M10.1667 10.1665C10.5349 10.1665 10.8333 10.465 10.8333 10.8332V14.8332C10.8333 15.2014 10.5349 15.4998 10.1667 15.4998C9.79848 15.4998 9.5 15.2014 9.5 14.8332V10.8332C9.5 10.465 9.79848 10.1665 10.1667 10.1665Z" fill="white"/>
<path d="M44.8333 4.49992C44.8333 5.42039 36.476 6.16658 26.1667 6.16658C15.8574 6.16658 7.5 5.42039 7.5 4.49992C7.5 3.57944 15.8574 2.83325 26.1667 2.83325C36.476 2.83325 44.8333 3.57944 44.8333 4.49992Z" fill="black"/>
<path d="M37.4999 27.0757C37.4999 27.6112 37.0658 28.0454 36.5302 28.0454C35.9947 28.0454 35.5605 27.6112 35.5605 27.0757C35.5605 26.5401 35.9947 26.106 36.5302 26.106C37.0658 26.106 37.4999 26.5401 37.4999 27.0757Z" fill="black"/>
<path d="M34.5908 25.1362C34.5908 25.6717 34.1566 26.1059 33.6211 26.1059C33.0855 26.1059 32.6514 25.6717 32.6514 25.1362C32.6514 24.6007 33.0855 24.1665 33.6211 24.1665C34.1566 24.1665 34.5908 24.6007 34.5908 25.1362Z" fill="black"/>
<path d="M32.7729 22.4697C32.7729 23.0052 32.3387 23.4394 31.8032 23.4394C31.2676 23.4394 30.8335 23.0052 30.8335 22.4697C30.8335 21.9341 31.2676 21.5 31.8032 21.5C32.3387 21.5 32.7729 21.9341 32.7729 22.4697Z" fill="black"/>
<path d="M30.2275 25.6819C30.2275 26.0835 29.9019 26.4091 29.5002 26.4091C29.0986 26.4091 28.7729 26.0835 28.7729 25.6819C28.7729 25.2802 29.0986 24.9546 29.5002 24.9546C29.9019 24.9546 30.2275 25.2802 30.2275 25.6819Z" fill="black"/>
<path d="M28.9545 22.8938C28.9545 23.2954 28.6289 23.621 28.2273 23.621C27.8256 23.621 27.5 23.2954 27.5 22.8938C27.5 22.4921 27.8256 22.1665 28.2273 22.1665C28.6289 22.1665 28.9545 22.4921 28.9545 22.8938Z" fill="black"/>
<path d="M26.9545 26.8938C26.9545 27.2954 26.6289 27.621 26.2273 27.621C25.8256 27.621 25.5 27.2954 25.5 26.8938C25.5 26.4921 25.8256 26.1665 26.2273 26.1665C26.6289 26.1665 26.9545 26.4921 26.9545 26.8938Z" fill="black"/>
<path d="M26.9545 31.5605C26.9545 31.9622 26.6289 32.2878 26.2273 32.2878C25.8256 32.2878 25.5 31.9622 25.5 31.5605C25.5 31.1589 25.8256 30.8333 26.2273 30.8333C26.6289 30.8333 26.9545 31.1589 26.9545 31.5605Z" fill="black"/>
<path d="M30.7123 31.924C30.7123 32.4596 30.2782 32.8937 29.7426 32.8937C29.2071 32.8937 28.7729 32.4596 28.7729 31.924C28.7729 31.3885 29.2071 30.9543 29.7426 30.9543C30.2782 30.9543 30.7123 31.3885 30.7123 31.924Z" fill="black"/>
<path d="M28.9545 28.5908C28.9545 28.9925 28.6289 29.3181 28.2273 29.3181C27.8256 29.3181 27.5 28.9925 27.5 28.5908C27.5 28.1891 27.8256 27.8635 28.2273 27.8635C28.6289 27.8635 28.9545 28.1891 28.9545 28.5908Z" fill="black"/>
<path d="M33.621 28.7727C33.621 29.4421 33.0783 29.9848 32.4089 29.9848C31.7395 29.9848 31.1968 29.4421 31.1968 28.7727C31.1968 28.1032 31.7395 27.5605 32.4089 27.5605C33.0783 27.5605 33.621 28.1032 33.621 28.7727Z" fill="black"/>
<path d="M37.9242 22.0454C37.9242 22.7148 37.3816 23.2575 36.7121 23.2575C36.0427 23.2575 35.5 22.7148 35.5 22.0454C35.5 21.3759 36.0427 20.8333 36.7121 20.8333C37.3816 20.8333 37.9242 21.3759 37.9242 22.0454Z" fill="black"/>
<path d="M36.5302 30.4697C36.5302 31.0052 36.0961 31.4394 35.5605 31.4394C35.025 31.4394 34.5908 31.0052 34.5908 30.4697C34.5908 29.9341 35.025 29.5 35.5605 29.5C36.0961 29.5 36.5302 29.9341 36.5302 30.4697Z" fill="black"/>
</svg>
